<svg width="25" height="24" viewBox="0 0 25 24" fill="none" xmlns="http://www.w3.org/2000/svg">
<path d="M6.75 20C6.46667 20 6.22934 19.904 6.038 19.712C5.84667 19.52 5.75067 19.2827 5.75 19C5.74934 18.7173 5.84534 18.48 6.038 18.288C6.23067 18.096 6.468 18 6.75 18H7.35L9.325 11.425C9.45834 10.9917 9.70434 10.646 10.063 10.388C10.4217 10.13 10.8173 10.0007 11.25 10H14.25C14.6833 10 15.0793 10.1293 15.438 10.388C15.7967 10.6467 16.0423 10.9923 16.175 11.425L18.15 18H18.75C19.0333 18 19.271 18.096 19.463 18.288C19.655 18.48 19.7507 18.7173 19.75 19C19.7493 19.2827 19.6533 19.5203 19.462 19.713C19.2707 19.9057 19.0333 20.0013 18.75 20H6.75ZM11.75 7V4C11.75 3.71667 11.846 3.47934 12.038 3.288C12.23 3.09667 12.4673 3.00067 12.75 3C13.0327 2.99934 13.2703 3.09534 13.463 3.288C13.6557 3.48067 13.7513 3.718 13.75 4V7C13.75 7.28334 13.654 7.521 13.462 7.713C13.27 7.905 13.0327 8.00067 12.75 8C12.4673 7.99934 12.23 7.90334 12.038 7.712C11.846 7.52067 11.75 7.28334 11.75 7ZM17 8.35L19.125 6.225C19.3083 6.04167 19.5377 5.94567 19.813 5.937C20.0883 5.92834 20.3257 6.02434 20.525 6.225C20.7083 6.40834 20.8 6.64167 20.8 6.925C20.8 7.20834 20.7083 7.44167 20.525 7.625L18.4 9.775C18.2 9.975 17.9667 10.075 17.7 10.075C17.4333 10.075 17.2 9.975 17 9.775C16.8 9.575 16.7 9.33767 16.7 9.063C16.7 8.78834 16.8 8.55067 17 8.35ZM19.75 13H22.75C23.0333 13 23.271 13.096 23.463 13.288C23.655 13.48 23.7507 13.7173 23.75 14C23.7493 14.2827 23.6533 14.5203 23.462 14.713C23.2707 14.9057 23.0333 15.0013 22.75 15H19.75C19.4667 15 19.2293 14.904 19.038 14.712C18.8467 14.52 18.7507 14.2827 18.75 14C18.7493 13.7173 18.8453 13.48 19.038 13.288C19.2307 13.096 19.468 13 19.75 13ZM7.1 9.75L4.975 7.625C4.79167 7.44167 4.696 7.21267 4.688 6.938C4.68 6.66334 4.77567 6.42567 4.975 6.225C5.15834 6.04167 5.39167 5.95 5.675 5.95C5.95834 5.95 6.19167 6.04167 6.375 6.225L8.525 8.35C8.725 8.55 8.825 8.78334 8.825 9.05C8.825 9.31667 8.725 9.55 8.525 9.75C8.325 9.95 8.08767 10.05 7.813 10.05C7.53834 10.05 7.30067 9.95 7.1 9.75ZM2.75 15C2.46667 15 2.22934 14.904 2.038 14.712C1.84667 14.52 1.75067 14.2827 1.75 14C1.74934 13.7173 1.84534 13.48 2.038 13.288C2.23067 13.096 2.468 13 2.75 13H5.75C6.03334 13 6.271 13.096 6.463 13.288C6.655 13.48 6.75067 13.7173 6.75 14C6.74934 14.2827 6.65334 14.5203 6.462 14.713C6.27067 14.9057 6.03334 15.0013 5.75 15H2.75Z" fill="#005E0E"/>
</svg>
