<svg width="25" height="24" viewBox="0 0 25 24" fill="none" xmlns="http://www.w3.org/2000/svg">
<path d="M18.5 3C19.5609 3 20.5783 3.42143 21.3284 4.17157C22.0786 4.92172 22.5 5.93913 22.5 7V15C22.5 16.0609 22.0786 17.0783 21.3284 17.8284C20.5783 18.5786 19.5609 19 18.5 19H13.776L9.014 21.857C8.87059 21.9431 8.70788 21.9918 8.54077 21.9987C8.37366 22.0056 8.20749 21.9705 8.05746 21.8966C7.90743 21.8227 7.77833 21.7123 7.68199 21.5756C7.58565 21.4389 7.52514 21.2802 7.506 21.114L7.5 21V19H6.5C5.47376 19 4.48677 18.6056 3.74319 17.8983C2.9996 17.191 2.55631 16.225 2.505 15.2L2.5 15V7C2.5 5.93913 2.92143 4.92172 3.67157 4.17157C4.42172 3.42143 5.43913 3 6.5 3H18.5ZM12.5 13C12.2348 13 11.9804 13.1054 11.7929 13.2929C11.6054 13.4804 11.5 13.7348 11.5 14V14.01C11.5 14.2752 11.6054 14.5296 11.7929 14.7171C11.9804 14.9046 12.2348 15.01 12.5 15.01C12.7652 15.01 13.0196 14.9046 13.2071 14.7171C13.3946 14.5296 13.5 14.2752 13.5 14.01V14C13.5 13.7348 13.3946 13.4804 13.2071 13.2929C13.0196 13.1054 12.7652 13 12.5 13ZM12.5 7C12.2348 7 11.9804 7.10536 11.7929 7.29289C11.6054 7.48043 11.5 7.73478 11.5 8V11C11.5 11.2652 11.6054 11.5196 11.7929 11.7071C11.9804 11.8946 12.2348 12 12.5 12C12.7652 12 13.0196 11.8946 13.2071 11.7071C13.3946 11.5196 13.5 11.2652 13.5 11V8C13.5 7.73478 13.3946 7.48043 13.2071 7.29289C13.0196 7.10536 12.7652 7 12.5 7Z" fill="#005E0E"/>
</svg>
