<svg width="24" height="24" viewBox="0 0 24 24" fill="none" xmlns="http://www.w3.org/2000/svg">
<g clip-path="url(#clip0_3001_879)">
<path d="M0 2.4C0 1.08 1.08 0 2.4 0H21.6C22.2365 0 22.847 0.252856 23.2971 0.702944C23.7471 1.15303 24 1.76348 24 2.4V21.6C24 22.2365 23.7471 22.847 23.2971 23.2971C22.847 23.7471 22.2365 24 21.6 24H2.4C1.76348 24 1.15303 23.7471 0.702944 23.2971C0.252856 22.847 0 22.2365 0 21.6V2.4ZM16.8 16.8H21.6V2.4H2.4V16.8H7.2C7.2 18.12 8.28 19.2 9.6 19.2H14.4C15.0365 19.2 15.647 18.9471 16.0971 18.4971C16.5471 18.047 16.8 17.4365 16.8 16.8ZM6 10.8L8.4 8.4L10.8 10.8L15.6 6L18 8.4L10.8 15.6L6 10.8Z" fill="white"/>
</g>
<defs>
<clipPath id="clip0_3001_879">
<rect width="24" height="24" fill="white"/>
</clipPath>
</defs>
</svg>
