<svg width="16" height="16" viewBox="0 0 16 16" fill="none" xmlns="http://www.w3.org/2000/svg">
<path fill-rule="evenodd" clip-rule="evenodd" d="M16 13.7143V2.28571C16 1.67951 15.7592 1.09812 15.3305 0.66947C14.9019 0.240816 14.3205 0 13.7143 0H2.28571C1.6795 0 1.09812 0.240816 0.66947 0.66947C0.240815 1.09812 -7.15256e-07 1.67951 -7.15256e-07 2.28571V13.7143C-7.15256e-07 14.3205 0.240815 14.9019 0.66947 15.3305C1.09812 15.7592 1.6795 16 2.28571 16H13.7143C14.3205 16 14.9019 15.7592 15.3305 15.3305C15.7592 14.9019 16 14.3205 16 13.7143Z" stroke="#005E0E" stroke-width="1.14286" stroke-linecap="round" stroke-linejoin="round"/>
<path fill-rule="evenodd" clip-rule="evenodd" d="M13.7143 13.7143V2.28571C13.7143 1.67951 13.4735 1.09812 13.0448 0.66947C12.6162 0.240816 12.0348 0 11.4286 0H13.7143C14.8571 0 16 1.02286 16 2.28571V13.7143C16 14.9771 14.8571 16 13.7143 16H11.4286C12.0348 16 12.6162 15.7592 13.0448 15.3305C13.4735 14.9019 13.7143 14.3205 13.7143 13.7143Z" fill="#005E0E" stroke="#005E0E" stroke-width="1.14286" stroke-linecap="round" stroke-linejoin="round"/>
<path fill-rule="evenodd" clip-rule="evenodd" d="M8 11.4284L11.4286 7.99986L8 4.57129M2.28572 7.99986H11.4286H2.28572Z" fill="#005E0E"/>
<path d="M8 11.4284L11.4286 7.99986M11.4286 7.99986L8 4.57129M11.4286 7.99986H2.28572" stroke="#005E0E" stroke-width="1.14286" stroke-linecap="round" stroke-linejoin="round"/>
</svg>
