<svg width="25" height="24" viewBox="0 0 25 24" fill="none" xmlns="http://www.w3.org/2000/svg">
<path d="M12.25 22C10.8667 22 9.68767 21.5123 8.713 20.537C7.73833 19.5617 7.25067 18.3827 7.25 17V7C7.25 5.61667 7.73767 4.43767 8.713 3.463C9.68833 2.48833 10.8673 2.00067 12.25 2C13.6327 1.99933 14.812 2.487 15.788 3.463C16.764 4.439 17.2513 5.618 17.25 7V12H14.25C13.7 12 13.2293 12.196 12.838 12.588C12.4467 12.98 12.2507 13.4507 12.25 14C11.7 14 11.2293 14.196 10.838 14.588C10.4467 14.98 10.2507 15.4507 10.25 16C10.25 16.5333 10.446 16.9917 10.838 17.375C11.23 17.7583 11.7007 17.9667 12.25 18V22ZM14.25 22V21.425C14.25 20.5583 14.6667 19.9333 15.5 19.55C16.3333 19.1667 17.25 18.975 18.25 18.975C19.25 18.975 20.1667 19.1667 21 19.55C21.8333 19.9333 22.25 20.5583 22.25 21.425V22H14.25ZM18.25 18C17.7 18 17.2293 17.8043 16.838 17.413C16.4467 17.0217 16.2507 16.5507 16.25 16C16.2493 15.4493 16.4453 14.9787 16.838 14.588C17.2307 14.1973 17.7013 14.0013 18.25 14C18.7987 13.9987 19.2697 14.1947 19.663 14.588C20.0563 14.9813 20.252 15.452 20.25 16C20.248 16.548 20.0523 17.019 19.663 17.413C19.2737 17.807 18.8027 18.0027 18.25 18ZM12.25 17C11.9667 17 11.7293 16.904 11.538 16.712C11.3467 16.52 11.2507 16.2827 11.25 16C11.2493 15.7173 11.3453 15.48 11.538 15.288C11.7307 15.096 11.968 15 12.25 15C12.532 15 12.7697 15.096 12.963 15.288C13.1563 15.48 13.252 15.7173 13.25 16C13.248 16.2827 13.152 16.5203 12.962 16.713C12.772 16.9057 12.5347 17.0013 12.25 17ZM12.25 10C12.8 10 13.271 9.80433 13.663 9.413C14.055 9.02167 14.2507 8.55067 14.25 8C14.2493 7.44933 14.0537 6.97867 13.663 6.588C13.2723 6.19733 12.8013 6.00133 12.25 6C11.6987 5.99867 11.228 6.19467 10.838 6.588C10.448 6.98133 10.252 7.452 10.25 8C10.248 8.548 10.444 9.019 10.838 9.413C11.232 9.807 11.7027 10.0027 12.25 10Z" fill="#005E0E"/>
</svg>
