<svg width="22" height="22" viewBox="0 0 22 22" fill="none" xmlns="http://www.w3.org/2000/svg">
<path d="M20.1666 0.166687H1.83329C0.912818 0.166687 0.166626 0.912879 0.166626 1.83335V20.1667C0.166626 21.0872 0.912818 21.8334 1.83329 21.8334H20.1666C21.0871 21.8334 21.8333 21.0872 21.8333 20.1667V1.83335C21.8333 0.912879 21.0871 0.166687 20.1666 0.166687Z" stroke="#495057" stroke-width="1.66667"/>
<path d="M6.83329 8.49996C7.75377 8.49996 8.49996 7.75377 8.49996 6.83329C8.49996 5.91282 7.75377 5.16663 6.83329 5.16663C5.91282 5.16663 5.16663 5.91282 5.16663 6.83329C5.16663 7.75377 5.91282 8.49996 6.83329 8.49996Z" stroke="#495057" stroke-width="1.66667"/>
<path d="M4.33337 17.6666L6.83337 13.4999L9.33337 17.6666L13.5 10.9999L17.6667 17.6666" stroke="#495057" stroke-width="1.66667" stroke-linecap="round" stroke-linejoin="round"/>
</svg>
