<svg width="36" height="38" viewBox="0 0 36 38" fill="none" xmlns="http://www.w3.org/2000/svg">
<path d="M36 17.9997C36.0057 21.5732 34.9428 25.0668 32.948 28.0317C31.3028 30.4858 29.0783 32.4966 26.4711 33.8863C23.8639 35.2761 20.9545 36.0019 18 35.9997C15.0455 36.0019 12.1361 35.2761 9.52889 33.8863C6.92171 32.4966 4.69716 30.4858 3.052 28.0317C1.48546 25.6966 0.487805 23.0269 0.139012 20.2366C-0.209781 17.4464 0.0999909 14.6132 1.0435 11.9643C1.987 9.31536 3.53799 6.92432 5.57214 4.98284C7.60628 3.04137 10.067 1.60347 12.757 0.784411C15.447 -0.034646 18.2915 -0.212077 21.0625 0.266344C23.8334 0.744764 26.4538 1.86573 28.7134 3.53937C30.9731 5.21301 32.8092 7.39278 34.0745 9.90394C35.3399 12.4151 35.9994 15.1878 36 17.9997Z" stroke="black" stroke-width="3"/>
<path d="M20.4999 12C20.4999 13.38 19.3799 14.5 17.9999 14.5V17.5C19.4586 17.5 20.8575 16.9205 21.889 15.8891C22.9205 14.8576 23.4999 13.4587 23.4999 12H20.4999ZM17.9999 14.5C16.6199 14.5 15.4999 13.38 15.4999 12H12.4999C12.4999 13.4587 13.0794 14.8576 14.1108 15.8891C15.1423 16.9205 16.5412 17.5 17.9999 17.5V14.5ZM15.4999 12C15.4999 10.62 16.6199 9.5 17.9999 9.5V6.5C16.5412 6.5 15.1423 7.07946 14.1108 8.11091C13.0794 9.14236 12.4999 10.5413 12.4999 12H15.4999ZM17.9999 9.5C19.3799 9.5 20.4999 10.62 20.4999 12H23.4999C23.4999 10.5413 22.9205 9.14236 21.889 8.11091C20.8575 7.07946 19.4586 6.5 17.9999 6.5V9.5ZM4.33191 29.712L2.89391 29.284L2.65991 30.068L3.19391 30.688L4.33191 29.712ZM31.6679 29.712L32.8079 30.69L33.3399 30.07L33.1059 29.284L31.6679 29.712ZM11.9999 25.5H23.9999V22.5H11.9999V25.5ZM11.9999 22.5C9.95395 22.4995 7.96248 23.1594 6.32178 24.3818C4.68109 25.6041 3.47884 27.3234 2.89391 29.284L5.76991 30.14C6.17041 28.7989 6.99306 27.623 8.11553 26.787C9.238 25.951 10.6003 25.4996 11.9999 25.5V22.5ZM17.9999 34.5C15.6187 34.5027 13.2653 33.9888 11.1021 32.9937C8.93883 31.9985 7.01724 30.5459 5.46991 28.736L3.19391 30.688C5.02283 32.826 7.2936 34.5439 9.84969 35.7196C12.4058 36.8952 15.1864 37.5027 17.9999 37.5V34.5ZM23.9999 25.5C26.9399 25.5 29.4299 27.456 30.2299 30.14L33.1059 29.284C32.521 27.3234 31.3187 25.6041 29.678 24.3818C28.0373 23.1594 26.0459 22.4995 23.9999 22.5V25.5ZM30.5299 28.736C28.9826 30.5459 27.061 31.9985 24.8977 32.9937C22.7345 33.9888 20.3811 34.5027 17.9999 34.5V37.5C20.8134 37.5027 23.594 36.8952 26.1501 35.7196C28.7062 34.5439 30.979 32.828 32.8079 30.69L30.5299 28.736Z" fill="black"/>
</svg>
