<svg width="229" height="160" viewBox="0 0 229 160" fill="none" xmlns="http://www.w3.org/2000/svg">
<mask id="mask0_0_60" style="mask-type:luminance" maskUnits="userSpaceOnUse" x="63" y="42" width="102" height="34">
<path d="M63.7612 42.2521H164.185V75.015H63.7612V42.2521Z" fill="white"/>
</mask>
<g mask="url(#mask0_0_60)">
<path d="M111.585 73.4167C87.2938 70.6855 67.6255 63.1378 63.7643 55.6151C69.2268 61.8174 85.858 67.7138 105.976 69.9738C131.188 72.8081 152.323 68.8625 153.188 61.1588C154.018 53.7516 135.804 45.5733 111.991 42.4331C112.996 42.5268 114.004 42.6329 115.019 42.7453C142.743 45.8605 164.447 55.253 163.498 63.7246C162.549 72.1931 139.307 76.532 111.585 73.4167Z" fill="#1C110A"/>
</g>
<path d="M124.804 17.1711V69.3713C127.439 69.3089 129.949 69.1559 132.308 68.9218V21.5131L124.804 17.1711Z" fill="#166681"/>
<path d="M94.9852 58.1372V66.8148C97.4231 67.2831 99.9327 67.692 102.489 68.0447V17.1711L94.9852 21.5131V58.1372Z" fill="#1C110A"/>
<path d="M124.804 75.8484V99.1033L132.308 94.7613V75.8702C131.232 75.8983 130.136 75.9108 129.022 75.9108C127.632 75.9108 126.225 75.889 124.804 75.8484Z" fill="#166681"/>
<path d="M94.9852 94.7613L102.489 99.1032V73.6384C99.9296 73.2076 97.4231 72.7207 94.9852 72.1838V94.7613Z" fill="#1C110A"/>
<mask id="mask1_0_60" style="mask-type:luminance" maskUnits="userSpaceOnUse" x="109" y="0" width="5" height="70">
<path d="M109.846 3.05176e-05H113.842V69.4213H109.846V3.05176e-05Z" fill="white"/>
</mask>
<g mask="url(#mask1_0_60)">
<path d="M109.893 2.18824V68.872C111.151 68.9844 112.403 69.0749 113.645 69.1498V0.0188293L109.893 2.18824Z" fill="#1C110A"/>
</g>
<mask id="mask2_0_60" style="mask-type:luminance" maskUnits="userSpaceOnUse" x="113" y="0" width="5" height="70">
<path d="M113.043 3.05176e-05H117.837V69.4213H113.043V3.05176e-05Z" fill="white"/>
</mask>
<g mask="url(#mask2_0_60)">
<path d="M113.645 0.0188293V69.1498C114.906 69.2278 116.158 69.2871 117.4 69.3309V2.18824L113.645 0.0188293Z" fill="#166681"/>
</g>
<mask id="mask3_0_60" style="mask-type:luminance" maskUnits="userSpaceOnUse" x="113" y="75" width="5" height="42">
<path d="M113.043 75.015H117.837V116.268H113.043V75.015Z" fill="white"/>
</mask>
<g mask="url(#mask3_0_60)">
<path d="M117.4 114.086V75.4552C116.155 75.3615 114.903 75.2492 113.645 75.1243V116.256L117.4 114.086Z" fill="#166681"/>
</g>
<mask id="mask4_0_60" style="mask-type:luminance" maskUnits="userSpaceOnUse" x="109" y="74" width="5" height="43">
<path d="M109.846 74.2159H113.842V116.268H109.846V74.2159Z" fill="white"/>
</mask>
<g mask="url(#mask4_0_60)">
<path d="M109.893 74.7122V114.086L113.645 116.256V75.1242C112.905 75.0524 112.162 74.9744 111.42 74.8932C110.911 74.8339 110.402 74.7746 109.893 74.7122Z" fill="#1C110A"/>
</g>
<path d="M27.4439 124.455H33.0376V124.568C32.613 124.693 32.226 124.864 31.8764 125.08C31.533 125.289 31.2053 125.626 30.89 126.091C30.581 126.559 30.2532 127.237 29.9036 128.126L23.436 144.67L20.3769 146.805L20.4643 146.156L15.932 134.506L11.924 144.67L8.86498 146.805L8.95238 146.156L1.33602 126.515C1.19243 126.11 0.989533 125.713 0.724209 125.329C0.455764 124.948 0.215411 124.655 3.05176e-05 124.455H8.3156V124.568C7.60703 124.636 7.02019 124.767 6.5551 124.967C6.08688 125.167 5.79658 125.513 5.68109 126.004C5.57184 126.487 5.69357 127.183 6.04318 128.089L11.8116 143.371L15.6073 133.62L12.8355 126.515C12.6919 126.11 12.489 125.713 12.2237 125.329C11.9646 124.948 11.7242 124.655 11.4995 124.455H19.8275V124.568C19.119 124.636 18.5321 124.767 18.067 124.967C17.5988 125.167 17.3085 125.513 17.193 126.004C17.0838 126.487 17.1993 127.183 17.5426 128.089L23.3111 143.371L29.2419 128.089C29.5821 127.199 29.707 126.528 29.6164 126.078C29.5228 125.623 29.2793 125.289 28.8798 125.08C28.4865 124.864 28.0089 124.693 27.4439 124.568V124.455Z" fill="#111F39"/>
<path d="M54.0123 139.388L54.1246 139.451L52.5514 145.706L52.3641 146.38L51.3403 145.706H35.3584V145.556C35.989 145.332 36.5321 145.051 36.9816 144.707C37.4373 144.358 37.6683 143.914 37.6683 143.371V126.178C37.6683 125.638 37.4373 125.261 36.9816 125.042C36.5321 124.827 35.989 124.68 35.3584 124.605V124.455H51.9396L53.0384 129.637L52.9135 129.699C52.1644 128.61 51.4808 127.714 50.8658 127.015C50.2478 126.316 49.5486 125.798 48.7682 125.454C47.9941 125.114 46.9765 124.942 45.7217 124.942H41.5264V134.831H44.5605C45.7747 134.831 46.7455 134.728 47.4697 134.519C48.2001 134.303 48.7745 133.945 49.1927 133.445C49.6079 132.939 49.9356 132.246 50.1791 131.372V138.752C49.9356 137.878 49.6079 137.197 49.1927 136.704C48.7745 136.204 48.2001 135.852 47.4697 135.643C46.7455 135.427 45.7747 135.318 44.5605 135.318H41.5264V145.219H46.0213C47.2762 145.219 48.3437 145.007 49.2177 144.582C50.098 144.158 50.9158 143.515 51.6649 142.647C52.4141 141.773 53.1945 140.687 54.0123 139.388Z" fill="#111F39"/>
<path d="M66.4576 133.17C67.9559 133.514 69.167 133.938 70.091 134.444C71.0212 134.953 71.7391 135.502 72.2385 136.092C72.738 136.676 73.0813 137.275 73.2749 137.89C73.4653 138.508 73.562 139.089 73.562 139.638C73.562 140.83 73.2312 141.92 72.5756 142.909C71.917 143.902 70.965 144.689 69.7164 145.269C68.4741 145.844 66.9633 146.131 65.184 146.131C63.3767 146.131 61.7785 145.85 60.3895 145.294C59.0067 144.739 57.8985 144.064 57.0682 143.271L59.8401 138.901C59.7308 139.935 59.8463 140.868 60.1897 141.698C60.5393 142.532 61.0387 143.243 61.688 143.833C62.3373 144.417 63.0739 144.863 63.898 145.169C64.7283 145.469 65.5836 145.619 66.4576 145.619C67.6313 145.619 68.524 145.388 69.142 144.92C69.757 144.455 70.1815 143.893 70.4156 143.234C70.6466 142.579 70.7652 141.967 70.7652 141.399C70.7652 140.443 70.5342 139.697 70.0785 139.164C69.629 138.624 68.9735 138.196 68.1182 137.878C67.2692 137.553 66.236 137.25 65.0217 136.966C63.0802 136.501 61.5787 135.889 60.5143 135.131C59.4562 134.366 58.7101 133.533 58.2794 132.634C57.8548 131.735 57.6426 130.861 57.6426 130.012C57.6426 128.772 57.9703 127.708 58.629 126.815C59.2938 125.926 60.2209 125.239 61.4133 124.755C62.612 124.274 64.0104 124.031 65.6086 124.031C67.3628 124.031 68.8611 124.299 70.1035 124.83C71.352 125.364 72.3821 126.016 73.1999 126.79L70.3657 131.198C70.5467 129.799 70.3532 128.607 69.7788 127.614C69.2045 126.615 68.4116 125.851 67.4065 125.317C66.4076 124.777 65.3401 124.505 64.2101 124.505C63.2518 124.505 62.4996 124.689 61.9502 125.055C61.4071 125.423 61.0262 125.888 60.8015 126.453C60.583 127.021 60.4769 127.608 60.4769 128.214C60.4769 129.306 60.7516 130.168 61.3009 130.798C61.8566 131.422 62.5901 131.916 63.4984 132.271C64.413 132.621 65.3994 132.921 66.4576 133.17Z" fill="#111F39"/>
<path d="M97.0851 124.455L95.1497 130.711H95.0249C95.2247 128.647 94.8407 127.165 93.8762 126.266C92.9179 125.361 91.61 124.905 89.9556 124.905H88.4948V143.671C88.4948 144.364 88.7476 144.829 89.2564 145.069C89.7621 145.313 90.4832 145.475 91.4165 145.556V145.706H81.7275V145.556C82.6577 145.475 83.3756 145.313 83.875 145.069C84.3807 144.829 84.6367 144.364 84.6367 143.671V124.905H84.5243C82.9823 124.905 81.7275 125.105 80.7536 125.504C79.7797 125.897 78.9681 126.515 78.3188 127.364C77.6758 128.214 77.0609 129.331 76.4709 130.711H76.3461L77.3574 124.455H97.0851Z" fill="#111F39"/>
<path d="M119.921 133.408C121.844 133.607 123.395 134.138 124.578 134.993C125.758 135.842 126.351 137.097 126.351 138.752C126.351 140.15 125.93 141.37 125.09 142.41C124.257 143.452 123.105 144.264 121.631 144.845C120.164 145.419 118.479 145.706 116.575 145.706H106.461V145.556C107.092 145.332 107.635 145.051 108.084 144.707C108.54 144.358 108.771 143.914 108.771 143.371V126.178C108.771 125.638 108.54 125.261 108.084 125.042C107.635 124.827 107.092 124.68 106.461 124.605V124.455H115.363C117.002 124.455 118.504 124.574 119.871 124.805C121.235 125.039 122.321 125.46 123.13 126.066C123.944 126.665 124.353 127.536 124.353 128.676C124.353 129.809 123.929 130.807 123.08 131.672C122.231 132.531 121.176 133.108 119.921 133.408ZM115.301 124.942H112.629V133.32H117.548C118.098 133.32 118.604 133.245 119.072 133.095C119.537 132.939 119.902 132.627 120.171 132.159C120.445 131.694 120.583 130.998 120.583 130.074C120.583 129.1 120.401 128.232 120.046 127.464C119.696 126.69 119.134 126.078 118.36 125.629C117.592 125.173 116.575 124.942 115.301 124.942ZM116.999 145.194C118.313 145.194 119.375 145.063 120.183 144.795C120.998 144.529 121.594 144.017 121.968 143.259C122.343 142.504 122.53 141.383 122.53 139.9C122.53 139.176 122.459 138.458 122.318 137.74C122.174 137.016 121.884 136.364 121.444 135.78C121.01 135.19 120.37 134.719 119.521 134.369C118.672 134.013 117.527 133.832 116.088 133.832H112.629V144.52C114.152 144.97 115.607 145.194 116.999 145.194Z" fill="#111F39"/>
<path d="M146.672 141.698C147.277 142.507 147.821 143.153 148.295 143.634C148.769 144.108 149.238 144.492 149.706 144.782C150.171 145.076 150.667 145.353 151.192 145.619V145.706H144.936V145.194L139.193 137.116H135.46V143.971C135.46 144.52 135.687 144.904 136.146 145.119C136.602 145.328 137.145 145.475 137.769 145.556V145.706H129.292V145.556C129.922 145.475 130.465 145.328 130.915 145.119C131.37 144.904 131.601 144.52 131.601 143.971V126.178C131.601 125.638 131.37 125.261 130.915 125.042C130.465 124.827 129.922 124.68 129.292 124.605V124.455H140.529C143.157 124.455 145.214 124.924 146.697 125.854C148.176 126.778 148.919 128.214 148.919 130.161C148.919 131.703 148.389 133.042 147.334 134.182C146.285 135.324 144.836 136.139 142.989 136.629L146.672 141.698ZM135.46 124.992V135.892C137.083 136.361 138.681 136.592 140.254 136.592C141.353 136.592 142.258 136.448 142.976 136.155C143.691 135.864 144.228 135.34 144.587 134.581C144.943 133.817 145.124 132.74 145.124 131.347C145.124 130.558 145.042 129.784 144.886 129.025C144.737 128.26 144.44 127.583 144 126.99C143.566 126.391 142.942 125.91 142.127 125.542C141.309 125.176 140.232 124.992 138.893 124.992H135.46Z" fill="#111F39"/>
<path d="M165.156 124.031C166.795 124.031 168.318 124.287 169.726 124.792C171.131 125.292 172.36 126.025 173.409 126.99C174.464 127.948 175.288 129.113 175.881 130.486C176.481 131.853 176.78 133.383 176.78 135.081C176.78 136.779 176.481 138.311 175.881 139.676C175.288 141.043 174.464 142.207 173.409 143.172C172.36 144.13 171.131 144.863 169.726 145.369C168.318 145.875 166.795 146.131 165.156 146.131C163.514 146.131 161.991 145.875 160.586 145.369C159.178 144.863 157.945 144.13 156.89 143.172C155.842 142.207 155.018 141.043 154.418 139.676C153.819 138.311 153.519 136.779 153.519 135.081C153.519 133.383 153.819 131.853 154.418 130.486C155.018 129.113 155.842 127.948 156.89 126.99C157.945 126.025 159.178 125.292 160.586 124.792C161.991 124.287 163.514 124.031 165.156 124.031ZM166.43 145.581C167.703 145.581 168.805 145.226 169.738 144.508C170.669 143.793 171.393 142.785 171.911 141.486C172.426 140.187 172.685 138.699 172.685 137.016C172.685 135.502 172.473 134.007 172.048 132.534C171.624 131.054 171.015 129.718 170.225 128.526C169.432 127.327 168.502 126.372 167.428 125.654C166.355 124.93 165.172 124.568 163.883 124.568C162.625 124.568 161.516 124.93 160.561 125.654C159.612 126.372 158.879 127.365 158.364 128.638C157.846 129.912 157.59 131.404 157.59 133.108C157.59 134.625 157.805 136.126 158.239 137.615C158.679 139.107 159.294 140.45 160.087 141.648C160.877 142.841 161.804 143.793 162.871 144.508C163.945 145.226 165.131 145.581 166.43 145.581Z" fill="#111F39"/>
<path d="M192.419 124.031C194.058 124.031 195.581 124.287 196.989 124.792C198.394 125.292 199.623 126.025 200.672 126.99C201.727 127.948 202.551 129.113 203.144 130.486C203.744 131.853 204.043 133.383 204.043 135.081C204.043 136.779 203.744 138.311 203.144 139.676C202.551 141.043 201.727 142.207 200.672 143.172C199.623 144.13 198.394 144.863 196.989 145.369C195.581 145.875 194.058 146.131 192.419 146.131C190.777 146.131 189.254 145.875 187.849 145.369C186.441 144.863 185.208 144.13 184.153 143.172C183.105 142.207 182.281 141.043 181.681 139.676C181.082 138.311 180.782 136.779 180.782 135.081C180.782 133.383 181.082 131.853 181.681 130.486C182.281 129.113 183.105 127.948 184.153 126.99C185.208 126.025 186.441 125.292 187.849 124.792C189.254 124.287 190.777 124.031 192.419 124.031ZM193.693 145.581C194.966 145.581 196.068 145.226 197.001 144.508C197.932 143.793 198.656 142.785 199.174 141.486C199.689 140.187 199.948 138.699 199.948 137.016C199.948 135.502 199.736 134.007 199.311 132.534C198.887 131.054 198.278 129.718 197.488 128.526C196.695 127.327 195.765 126.372 194.691 125.654C193.618 124.93 192.435 124.568 191.145 124.568C189.888 124.568 188.779 124.93 187.824 125.654C186.875 126.372 186.142 127.365 185.627 128.638C185.109 129.912 184.853 131.404 184.853 133.108C184.853 134.625 185.068 136.126 185.502 137.615C185.942 139.107 186.557 140.45 187.35 141.648C188.14 142.841 189.067 143.793 190.134 144.508C191.208 145.226 192.394 145.581 193.693 145.581Z" fill="#111F39"/>
<path d="M213.302 143.971C213.302 144.52 213.53 144.904 213.988 145.119C214.444 145.328 214.987 145.475 215.612 145.556V145.706H207.134V145.556C207.764 145.475 208.307 145.328 208.757 145.119C209.213 144.904 209.444 144.52 209.444 143.971V126.178C209.444 125.638 209.213 125.261 208.757 125.042C208.307 124.827 207.764 124.68 207.134 124.605V124.455H215.612V124.605C214.987 124.68 214.444 124.827 213.988 125.042C213.53 125.261 213.302 125.638 213.302 126.178V143.971ZM228.946 145.706H222.716V145.194L215.125 135.842H213.389L223.478 126.091C223.677 125.91 223.805 125.723 223.865 125.529C223.93 125.339 223.827 125.164 223.553 125.005C223.278 124.839 222.735 124.714 221.929 124.63L221.992 124.455H228.122L228.06 124.63C227.311 124.714 226.474 124.992 225.55 125.467C224.633 125.941 223.506 126.828 222.167 128.126L217.222 132.921L224.414 141.698C225.12 142.532 225.713 143.197 226.187 143.696C226.668 144.189 227.114 144.579 227.523 144.87C227.938 145.163 228.413 145.441 228.946 145.706Z" fill="#111F39"/>
<path d="M77.9071 159.85H75.3225V159.65L75.5723 159.625C75.7127 159.619 75.8126 159.597 75.8719 159.563C75.9281 159.522 75.9593 159.457 75.9593 159.363C75.9593 159.207 75.8345 158.845 75.5847 158.277H73.7868L73.6744 158.602C73.5152 158.986 73.4372 159.226 73.4372 159.326C73.4372 159.426 73.4871 159.501 73.587 159.551C73.6931 159.6 73.8648 159.635 74.0989 159.65V159.85H72.4758V159.65C72.6662 159.619 72.8066 159.547 72.9003 159.438C72.9908 159.332 73.1063 159.089 73.2499 158.714L75.0354 154.331H75.2476L77.0331 158.539C77.2485 159.039 77.4014 159.351 77.4951 159.476C77.595 159.594 77.7323 159.65 77.9071 159.65V159.85ZM75.4724 157.965L74.6608 156.017L73.9116 157.965H75.4724Z" fill="#111F39"/>
<path d="M86.0471 155.905C86.0471 156.214 85.9597 156.485 85.7849 156.716C85.6101 156.95 85.3635 157.128 85.0482 157.253C84.8734 157.322 84.6799 157.366 84.4739 157.39C84.2648 157.409 83.8902 157.422 83.3502 157.428V158.914C83.3502 159.207 83.3876 159.394 83.4625 159.476C83.5375 159.551 83.731 159.61 84.0494 159.65V159.85H81.3774V159.65C81.4929 159.625 81.5585 159.613 81.5772 159.613C81.7582 159.597 81.8831 159.538 81.9518 159.438C82.0173 159.338 82.0516 159.163 82.0516 158.914V155.38C82.0516 155.099 82.0079 154.912 81.9268 154.818C81.8425 154.728 81.6583 154.669 81.3774 154.644V154.444H83.9495C84.6144 154.444 85.1294 154.575 85.4977 154.831C85.8629 155.081 86.0471 155.44 86.0471 155.905ZM84.6737 155.942C84.6737 155.511 84.5988 155.202 84.4489 155.018C84.3053 154.828 84.0744 154.731 83.7497 154.731C83.4813 154.731 83.3502 154.825 83.3502 155.006V157.153C83.8558 157.153 84.1992 157.078 84.374 156.928C84.5738 156.754 84.6737 156.426 84.6737 155.942Z" fill="#111F39"/>
<path d="M94.7239 159.85H92.1393V159.65L92.389 159.625C92.5295 159.619 92.6294 159.597 92.6887 159.563C92.7448 159.522 92.7761 159.457 92.7761 159.363C92.7761 159.207 92.6512 158.845 92.4015 158.277H90.6035L90.4912 158.602C90.332 158.986 90.2539 159.226 90.2539 159.326C90.2539 159.426 90.3039 159.501 90.4038 159.551C90.5099 159.6 90.6816 159.635 90.9157 159.65V159.85H89.2925V159.65C89.4829 159.619 89.6234 159.547 89.717 159.438C89.8076 159.332 89.923 159.089 90.0666 158.714L91.8521 154.331H92.0644L93.8498 158.539C94.0652 159.039 94.2182 159.351 94.3118 159.476C94.4117 159.594 94.549 159.65 94.7239 159.65V159.85ZM92.2891 157.965L91.4775 156.017L90.7284 157.965H92.2891Z" fill="#111F39"/>
<path d="M103.788 159.85H102.14L100.492 157.353H100.279V158.914C100.279 159.198 100.317 159.385 100.392 159.476C100.473 159.56 100.669 159.619 100.978 159.65V159.85H98.2816V159.65C98.5875 159.619 98.781 159.56 98.8559 159.476C98.9371 159.394 98.9808 159.207 98.9808 158.914V155.38C98.9808 155.099 98.9339 154.912 98.8434 154.818C98.7591 154.728 98.5719 154.669 98.2816 154.644V154.444H100.854C101.578 154.444 102.13 154.569 102.514 154.818C102.904 155.062 103.101 155.411 103.101 155.867C103.101 156.242 102.979 156.541 102.739 156.766C102.545 156.941 102.252 157.091 101.853 157.216L103.451 159.501C103.532 159.6 103.644 159.65 103.788 159.65V159.85ZM101.74 155.905C101.74 155.48 101.656 155.177 101.49 154.993C101.331 154.812 101.069 154.719 100.704 154.719C100.504 154.719 100.379 154.762 100.329 154.843C100.295 154.918 100.279 154.99 100.279 155.056V157.091C100.81 157.091 101.172 157.025 101.366 156.891C101.615 156.726 101.74 156.398 101.74 155.905Z" fill="#111F39"/>
<path d="M112.003 156.054H111.765C111.697 155.58 111.547 155.243 111.316 155.043C111.082 154.837 110.723 154.725 110.242 154.706V158.914C110.242 159.223 110.283 159.419 110.367 159.501C110.458 159.575 110.673 159.625 111.016 159.65V159.85H108.17V159.65C108.51 159.625 108.722 159.572 108.806 159.488C108.897 159.407 108.944 159.213 108.944 158.914V154.706C108.444 154.725 108.076 154.837 107.845 155.043C107.62 155.243 107.47 155.58 107.395 156.054H107.171L107.196 154.444H111.99L112.003 156.054Z" fill="#111F39"/>
<path d="M122.688 159.85H120.041V159.65C120.34 159.625 120.531 159.575 120.615 159.501C120.705 159.426 120.752 159.276 120.752 159.051V154.981L118.742 159.85H118.517L116.507 155.106V158.864C116.507 159.157 116.56 159.357 116.669 159.463C116.775 159.563 116.994 159.625 117.319 159.65V159.85H115.446V159.65C115.752 159.619 115.948 159.563 116.033 159.488C116.123 159.413 116.17 159.257 116.17 159.014V155.218C116.17 155.012 116.123 154.868 116.033 154.793C115.939 154.719 115.749 154.669 115.458 154.644V154.444H117.481L119.079 158.215L120.677 154.444H122.688V154.644C122.394 154.669 122.204 154.728 122.113 154.818C122.029 154.912 121.988 155.099 121.988 155.38V158.914C121.988 159.198 122.026 159.385 122.101 159.476C122.182 159.56 122.379 159.619 122.688 159.65V159.85Z" fill="#111F39"/>
<path d="M131.078 158.19L130.765 159.85H126.083V159.65C126.383 159.619 126.573 159.569 126.658 159.501C126.748 159.435 126.795 159.298 126.795 159.089V155.218C126.795 155.012 126.745 154.868 126.645 154.793C126.551 154.712 126.364 154.662 126.083 154.644V154.444H130.703V156.054H130.503C130.394 155.524 130.21 155.168 129.954 154.993C129.704 154.812 129.255 154.719 128.605 154.719C128.396 154.719 128.256 154.743 128.181 154.793C128.112 154.843 128.081 154.943 128.081 155.093V156.953C128.512 156.953 128.821 156.872 129.005 156.704C129.195 156.529 129.32 156.214 129.379 155.755H129.592V158.464H129.379C129.33 157.999 129.208 157.675 129.017 157.49C128.833 157.309 128.521 157.216 128.081 157.216V159.151C128.081 159.326 128.125 159.448 128.218 159.513C128.318 159.572 128.493 159.6 128.743 159.6C129.342 159.6 129.823 159.457 130.191 159.163C130.431 158.957 130.653 158.633 130.853 158.19H131.078Z" fill="#111F39"/>
<path d="M139.977 154.644C139.708 154.687 139.54 154.75 139.465 154.831C139.39 154.906 139.353 155.062 139.353 155.293V160H139.128L135.557 155.642V158.864C135.557 159.148 135.601 159.345 135.694 159.451C135.794 159.551 136 159.619 136.319 159.65V159.85H134.496V159.65C134.786 159.619 134.976 159.56 135.07 159.476C135.16 159.394 135.207 159.238 135.207 159.014V155.218C135.014 154.993 134.873 154.843 134.783 154.768C134.689 154.687 134.602 154.644 134.521 154.644V154.444H136.206L139.003 157.877V155.443C139.003 155.162 138.947 154.965 138.841 154.856C138.741 154.75 138.544 154.678 138.254 154.644V154.444H139.977V154.644Z" fill="#111F39"/>
<path d="M148.304 156.054H148.067C147.998 155.58 147.848 155.243 147.617 155.043C147.383 154.837 147.024 154.725 146.544 154.706V158.914C146.544 159.223 146.584 159.419 146.668 159.501C146.759 159.575 146.974 159.625 147.318 159.65V159.85H144.471V159.65C144.811 159.625 145.023 159.572 145.108 159.488C145.198 159.407 145.245 159.213 145.245 158.914V154.706C144.746 154.725 144.377 154.837 144.146 155.043C143.922 155.243 143.772 155.58 143.697 156.054H143.472L143.497 154.444H148.292L148.304 156.054Z" fill="#111F39"/>
<path d="M155.73 158.314C155.73 158.814 155.546 159.223 155.181 159.538C154.822 159.847 154.347 160 153.757 160C153.433 160 153.083 159.938 152.709 159.813C152.549 159.757 152.44 159.725 152.384 159.725C152.315 159.725 152.265 159.747 152.234 159.788C152.2 159.831 152.172 159.9 152.147 160H151.909V158.027H152.147C152.212 158.321 152.278 158.545 152.346 158.701C152.412 158.861 152.503 159.014 152.621 159.163C152.927 159.547 153.314 159.738 153.782 159.738C154.088 159.738 154.332 159.66 154.507 159.501C154.688 159.335 154.781 159.114 154.781 158.839C154.781 158.623 154.719 158.449 154.594 158.314C154.475 158.183 154.238 158.034 153.882 157.865L153.358 157.615C152.665 157.284 152.237 156.91 152.072 156.492C152.012 156.326 151.984 156.148 151.984 155.955C151.984 155.455 152.137 155.062 152.446 154.768C152.762 154.478 153.189 154.331 153.732 154.331C154.032 154.331 154.344 154.391 154.669 154.506C154.825 154.566 154.937 154.594 155.006 154.594C155.081 154.594 155.134 154.578 155.168 154.544C155.2 154.503 155.234 154.428 155.268 154.319H155.505V156.055H155.281C155.196 155.799 155.118 155.599 155.043 155.455C154.969 155.305 154.859 155.162 154.719 155.018C154.425 154.728 154.098 154.581 153.732 154.581C153.464 154.581 153.252 154.653 153.096 154.793C152.936 154.937 152.858 155.131 152.858 155.38C152.858 155.574 152.911 155.73 153.021 155.855C153.136 155.98 153.358 156.123 153.682 156.279L154.856 156.866C155.112 156.991 155.321 157.191 155.48 157.465C155.646 157.734 155.73 158.015 155.73 158.314Z" fill="#111F39"/>
</svg>
