<svg width="24" height="24" viewBox="0 0 24 24" fill="none" xmlns="http://www.w3.org/2000/svg">
<path d="M18.384 20C18.8447 20 19.229 19.846 19.537 19.538C19.845 19.23 19.9993 18.8453 20 18.384V5.616C20 5.15533 19.8457 4.771 19.537 4.463C19.2283 4.155 18.844 4.00067 18.384 4H12.481C12.3383 4 12.2193 4.04767 12.124 4.143C12.0287 4.23833 11.981 4.35733 11.981 4.5C11.981 4.64267 12.0287 4.76167 12.124 4.857C12.2193 4.95233 12.3383 5 12.481 5H18.384C18.538 5 18.6793 5.064 18.808 5.192C18.9367 5.32 19.0007 5.46133 19 5.616V18.385C19 18.5383 18.936 18.6793 18.808 18.808C18.68 18.9367 18.539 19.0007 18.385 19H12.481C12.3383 19 12.2193 19.0477 12.124 19.143C12.0287 19.2383 11.981 19.3573 11.981 19.5C11.981 19.6427 12.0287 19.7617 12.124 19.857C12.2193 19.9523 12.3383 20 12.481 20H18.384ZM5.94 12.5H14.308C14.45 12.5 14.5687 12.4523 14.664 12.357C14.7593 12.2617 14.8073 12.1427 14.808 12C14.8087 11.8573 14.761 11.7383 14.665 11.643C14.569 11.5477 14.45 11.5 14.308 11.5H5.94L7.911 9.529C8.005 9.43567 8.055 9.323 8.061 9.191C8.06767 9.05833 8.01767 8.937 7.911 8.827C7.805 8.717 7.68733 8.661 7.558 8.659C7.428 8.657 7.308 8.711 7.198 8.821L4.584 11.434C4.42267 11.596 4.342 11.7847 4.342 12C4.342 12.2153 4.423 12.404 4.585 12.566L7.198 15.179C7.29533 15.2763 7.411 15.3273 7.545 15.332C7.679 15.3367 7.801 15.2837 7.911 15.173C8.01767 15.063 8.07 14.944 8.068 14.816C8.066 14.688 8.012 14.5713 7.906 14.466L5.94 12.5Z" fill="#495057"/>
</svg>
