<svg width="16" height="17" viewBox="0 0 16 17" fill="none" xmlns="http://www.w3.org/2000/svg">
<mask id="mask0_1_1469" style="mask-type:luminance" maskUnits="userSpaceOnUse" x="0" y="0" width="16" height="17">
<path d="M8 16.5C12.4183 16.5 16 12.9183 16 8.5C16 4.08172 12.4183 0.5 8 0.5C3.58172 0.5 0 4.08172 0 8.5C0 12.9183 3.58172 16.5 8 16.5Z" fill="white"/>
</mask>
<g mask="url(#mask0_1_1469)">
<path d="M0 5.03125L7.90625 4.15625L16 5.03125V6.0625L14.875 8.4375L16 10.9375V11.9688L7.96875 13L0 11.9688V10.9375L1.21875 8.5L0 6.0625V5.03125Z" fill="#EEEEEE"/>
<path d="M0 0.5H16V5.03125H0V0.5Z" fill="#333333"/>
<path d="M0 6.0625H16V10.9375H0V6.0625Z" fill="#A2001D"/>
<path d="M0 11.9688H16V16.5H0V11.9688Z" fill="#496E2D"/>
<path d="M0 5.03125V6.0625L1 8.5L0 10.9375V11.9688L2.25 12.9688L4.53125 11.9688L9 9.5L11.4688 5.03125L5.75 4.03125L0 5.03125Z" fill="#EEEEEE"/>
<path d="M0 0.5V5.03125H11.4688L14.75 3.75L16 0.5H0Z" fill="#333333"/>
<path d="M0 6.0625V10.9375H5.5625L9 9.5L10.4375 6.0625H0Z" fill="#A2001D"/>
<path d="M0 11.9688V16.5L3.25 15.25L4.53125 11.9688H0Z" fill="#496E2D"/>
<path d="M7.5 4.1875L6.5625 3.75L5 7.25L3.46875 3.75L2.5 4.1875L4.4375 8.5L2.5 12.8125L3.46875 13.25L5 9.75L6.5625 13.25L7.5 12.8125L5.59375 8.5L7.5 4.1875Z" fill="#EEEEEE"/>
<path d="M5 3.96875L4.46875 4.46875L4 8.46875L4.5 12.5312L5 13.0312L5.53125 12.5312L6 8.4375L5.53125 4.46875L5 3.96875Z" fill="#EEEEEE"/>
<path d="M6.75 6.09375L6.4375 8.46875L6.75 10.9062C7.18071 10.176 7.41738 9.3476 7.4375 8.5C7.4375 7.625 7.125 6.8125 6.75 6.09375ZM3.28125 6.09375L3.53125 8.40625L3.25 10.9062C2.81929 10.176 2.58262 9.3476 2.5625 8.5C2.5625 7.625 2.875 6.8125 3.25 6.09375H3.28125Z" fill="#333333"/>
<path d="M3.28125 6.09375V10.9062C3.62032 11.4952 4.02956 12.0408 4.5 12.5312V4.46875C4.125 4.84375 3.65625 5.40625 3.28125 6.09375ZM6.75 6.09375C6.41093 5.50481 6.00169 4.95916 5.53125 4.46875V12.5312C5.875 12.1562 6.34375 11.5938 6.75 10.9062V6.09375Z" fill="#A2001D"/>
<path d="M16 0.5L0 16.5L0.71875 16.25L1.40625 16.5H2.125L3.8125 15.5L5.5 16.5H6.5L8 15.5L9.5 16.5H10.5L12.1875 15.5L13.875 16.5H16L15.75 15.8125L16 15.0938V14.375L15 12.6875L16 11V10L15 8.5L16 7V6L15 4.3125L16 2.625V0.5Z" fill="#EEEEEE"/>
<path d="M9.5 7L6.5 10V16.5H9.5V10H16V7H9.5ZM5.5 11L0 16.5H1.40625L5.5 12.4062V11ZM10.5 11L16 16.5V15.0938L11.9062 11H10.5Z" fill="#D80027"/>
<path d="M16 2.625L12.625 6H16V2.625ZM12.625 11L16 14.375V11H12.625ZM5.5 13.125L2.125 16.5H5.5V13.125ZM10.5 13.125V16.5H13.875L10.5 13.125Z" fill="#0052B4"/>
</g>
</svg>
