<svg width="29" height="29" viewBox="0 0 29 29" fill="none" xmlns="http://www.w3.org/2000/svg">
<rect x="0.25" y="0.25" width="28.5" height="28.5" rx="3.75" fill="#D1C9FA"/>
<rect x="0.25" y="0.25" width="28.5" height="28.5" rx="3.75" stroke="#2D2264" stroke-width="0.5"/>
<path d="M14.5 15.3555L8.16108 21.6944C8.0483 21.8072 7.90974 21.8676 7.74541 21.8757C7.58108 21.8837 7.43447 21.8233 7.30558 21.6944C7.17669 21.5655 7.11224 21.4229 7.11224 21.2667C7.11224 21.1104 7.17669 20.9678 7.30558 20.8389L13.6445 14.5L7.30558 8.16108C7.1928 8.04831 7.13238 7.90975 7.12433 7.74542C7.11627 7.58108 7.17669 7.43447 7.30558 7.30558C7.43447 7.17669 7.57705 7.11225 7.73333 7.11225C7.8896 7.11225 8.03219 7.17669 8.16108 7.30558L14.5 13.6445L20.8389 7.30558C20.9517 7.19281 21.0906 7.13239 21.2558 7.12433C21.4193 7.11628 21.5655 7.17669 21.6944 7.30558C21.8233 7.43447 21.8877 7.57706 21.8877 7.73333C21.8877 7.88961 21.8233 8.03219 21.6944 8.16108L15.3555 14.5L21.6944 20.8389C21.8072 20.9517 21.8676 21.0907 21.8757 21.2558C21.8837 21.4193 21.8233 21.5655 21.6944 21.6944C21.5655 21.8233 21.4229 21.8878 21.2667 21.8878C21.1104 21.8878 20.9678 21.8233 20.8389 21.6944L14.5 15.3555Z" fill="black"/>
</svg>
