<svg width="41" height="32" viewBox="0 0 41 32" fill="none" xmlns="http://www.w3.org/2000/svg">
<path d="M10.0019 26.128C9.7939 26.128 9.6099 26.0787 9.4499 25.98C9.2899 25.8813 9.16546 25.7511 9.07657 25.5893C8.98057 25.4302 8.92724 25.2582 8.91657 25.0733C8.90768 24.8876 8.96013 24.7004 9.0739 24.512L19.5672 6.41067C19.681 6.22222 19.8179 6.08533 19.9779 6C20.1379 5.91467 20.3121 5.872 20.5006 5.872C20.689 5.872 20.8628 5.91467 21.0219 6C21.181 6.08533 21.3179 6.22222 21.4326 6.41067L31.9272 24.512C32.041 24.7004 32.093 24.8871 32.0832 25.072C32.0743 25.2587 32.021 25.4311 31.9232 25.5893C31.8343 25.7511 31.7099 25.8813 31.5499 25.98C31.3899 26.0787 31.2063 26.128 30.9992 26.128H10.0019ZM10.4339 24.7947H30.5672L20.5006 7.46133L10.4339 24.7947ZM20.5006 22.9493C20.7335 22.9493 20.9286 22.8707 21.0859 22.7133C21.2432 22.556 21.3215 22.3609 21.3206 22.128C21.3197 21.8951 21.241 21.7004 21.0846 21.544C20.9281 21.3876 20.7335 21.3084 20.5006 21.3067C20.2677 21.3049 20.073 21.3836 19.9166 21.5427C19.7601 21.7018 19.6815 21.8969 19.6806 22.128C19.6797 22.3591 19.7583 22.5542 19.9166 22.7133C20.0748 22.8724 20.2695 22.9511 20.5006 22.9493ZM20.5006 19.9747C20.6908 19.9747 20.8495 19.9107 20.9766 19.7827C21.1037 19.6547 21.1672 19.4964 21.1672 19.308V13.9747C21.1672 13.7853 21.1032 13.6267 20.9752 13.4987C20.8472 13.3707 20.6886 13.3071 20.4992 13.308C20.3099 13.3089 20.1517 13.3724 20.0246 13.4987C19.8975 13.6249 19.8339 13.7836 19.8339 13.9747V19.308C19.8339 19.4964 19.8979 19.6547 20.0259 19.7827C20.1539 19.9107 20.3126 19.9747 20.5019 19.9747" fill="#900B09"/>
</svg>
