<svg width="24" height="24" viewBox="0 0 24 24" fill="none" xmlns="http://www.w3.org/2000/svg">
<path d="M12 22C10.6167 22 9.43767 21.5123 8.463 20.537C7.48833 19.5617 7.00067 18.3827 7 17V7C7 5.61667 7.48767 4.43767 8.463 3.463C9.43833 2.48833 10.6173 2.00067 12 2C13.3827 1.99933 14.562 2.487 15.538 3.463C16.514 4.439 17.0013 5.618 17 7V12H14C13.45 12 12.9793 12.196 12.588 12.588C12.1967 12.98 12.0007 13.4507 12 14C11.45 14 10.9793 14.196 10.588 14.588C10.1967 14.98 10.0007 15.4507 10 16C10 16.5333 10.196 16.9917 10.588 17.375C10.98 17.7583 11.4507 17.9667 12 18V22ZM14 22V21.425C14 20.5583 14.4167 19.9333 15.25 19.55C16.0833 19.1667 17 18.975 18 18.975C19 18.975 19.9167 19.1667 20.75 19.55C21.5833 19.9333 22 20.5583 22 21.425V22H14ZM18 18C17.45 18 16.9793 17.8043 16.588 17.413C16.1967 17.0217 16.0007 16.5507 16 16C15.9993 15.4493 16.1953 14.9787 16.588 14.588C16.9807 14.1973 17.4513 14.0013 18 14C18.5487 13.9987 19.0197 14.1947 19.413 14.588C19.8063 14.9813 20.002 15.452 20 16C19.998 16.548 19.8023 17.019 19.413 17.413C19.0237 17.807 18.5527 18.0027 18 18ZM12 17C11.7167 17 11.4793 16.904 11.288 16.712C11.0967 16.52 11.0007 16.2827 11 16C10.9993 15.7173 11.0953 15.48 11.288 15.288C11.4807 15.096 11.718 15 12 15C12.282 15 12.5197 15.096 12.713 15.288C12.9063 15.48 13.002 15.7173 13 16C12.998 16.2827 12.902 16.5203 12.712 16.713C12.522 16.9057 12.2847 17.0013 12 17ZM12 10C12.55 10 13.021 9.80433 13.413 9.413C13.805 9.02167 14.0007 8.55067 14 8C13.9993 7.44933 13.8037 6.97867 13.413 6.588C13.0223 6.19733 12.5513 6.00133 12 6C11.4487 5.99867 10.978 6.19467 10.588 6.588C10.198 6.98133 10.002 7.452 10 8C9.998 8.548 10.194 9.019 10.588 9.413C10.982 9.807 11.4527 10.0027 12 10Z" fill="#F8F9FA"/>
</svg>
