<svg width="40" height="40" viewBox="0 0 40 40" fill="none" xmlns="http://www.w3.org/2000/svg">
<rect width="40" height="40" rx="20" fill="#005E0E" fill-opacity="0.05"/>
<path d="M17.5565 23.1627L26.0315 14.6877C26.2315 14.4877 26.4649 14.3877 26.7315 14.3877C26.9982 14.3877 27.2315 14.4877 27.4315 14.6877C27.6315 14.8877 27.7315 15.1254 27.7315 15.4007C27.7315 15.676 27.6315 15.9134 27.4315 16.1127L18.2565 25.3127C18.0565 25.5127 17.8232 25.6127 17.5565 25.6127C17.2899 25.6127 17.0565 25.5127 16.8565 25.3127L12.5565 21.0127C12.3565 20.8127 12.2605 20.5754 12.2685 20.3007C12.2765 20.026 12.3809 19.7884 12.5815 19.5877C12.7822 19.387 13.0199 19.287 13.2945 19.2877C13.5692 19.2884 13.8065 19.3884 14.0065 19.5877L17.5565 23.1627Z" fill="#005E0E"/>
</svg>
