<svg width="40" height="40" viewBox="0 0 40 40" fill="none" xmlns="http://www.w3.org/2000/svg">
<rect width="40" height="40" rx="20" fill="#005E0E" fill-opacity="0.05"/>
<path d="M12.1646 22.3289L13.8706 19.9999L12.1636 17.6699C12.3436 17.0689 12.5936 16.4799 12.9216 15.9129C13.241 15.3584 13.6243 14.8432 14.0636 14.3779L16.9356 14.6909L18.0996 12.0499C19.3485 11.7513 20.6501 11.7503 21.8996 12.0469L23.0656 14.6909L25.9376 14.3779C26.8198 15.3116 27.4703 16.4396 27.8366 17.6709L26.1306 19.9999L27.8366 22.3299C27.6566 22.9309 27.4066 23.5199 27.0786 24.0869C26.7591 24.6413 26.3758 25.1565 25.9366 25.6219L23.0646 25.3089L21.9006 27.9499C20.6516 28.2484 19.35 28.2494 18.1006 27.9529L16.9346 25.3089L14.0626 25.6219C13.1804 24.6881 12.5299 23.5601 12.1636 22.3289M16.8266 24.3149C17.0378 24.2919 17.2507 24.3369 17.4347 24.4431C17.6186 24.5494 17.7639 24.7115 17.8496 24.9059L18.8066 27.0759C19.5966 27.2099 20.4036 27.2079 21.1936 27.0749L22.1496 24.9059C22.2354 24.7116 22.3808 24.5498 22.5647 24.4437C22.7486 24.3376 22.9615 24.2929 23.1726 24.3159L25.5306 24.5719C26.0409 23.9538 26.4445 23.2548 26.7246 22.5039L25.3236 20.5909C25.198 20.4194 25.1302 20.2124 25.1302 19.9999C25.1302 19.7873 25.198 19.5803 25.3236 19.4089L26.7236 17.4969C26.4442 16.7457 26.0413 16.0464 25.5316 15.4279L23.1726 15.6849C22.9614 15.7078 22.7484 15.6628 22.5645 15.5566C22.3805 15.4503 22.2352 15.2882 22.1496 15.0939L21.1936 12.9239C20.4034 12.7914 19.5966 12.7917 18.8066 12.9249L17.8506 15.0939C17.7648 15.2881 17.6194 15.4499 17.4355 15.556C17.2515 15.6621 17.0386 15.7068 16.8276 15.6839L14.4696 15.4279C13.9592 16.0459 13.5557 16.7449 13.2756 17.4959L14.6766 19.4089C14.8022 19.5803 14.8699 19.7873 14.8699 19.9999C14.8699 20.2124 14.8022 20.4194 14.6766 20.5909L13.2766 22.5029C13.5566 23.2539 13.9576 23.9529 14.4686 24.5719L16.8266 24.3149ZM20.0006 22.9999C19.2049 22.9999 18.4419 22.6838 17.8793 22.1212C17.3166 21.5586 17.0006 20.7955 17.0006 19.9999C17.0006 19.2042 17.3166 18.4411 17.8793 17.8785C18.4419 17.3159 19.2049 16.9999 20.0006 16.9999C20.7962 16.9999 21.5593 17.3159 22.1219 17.8785C22.6845 18.4411 23.0006 19.2042 23.0006 19.9999C23.0006 20.7955 22.6845 21.5586 22.1219 22.1212C21.5593 22.6838 20.7962 22.9999 20.0006 22.9999ZM20.0006 21.9999C20.531 21.9999 21.0397 21.7891 21.4148 21.4141C21.7899 21.039 22.0006 20.5303 22.0006 19.9999C22.0006 19.4694 21.7899 18.9607 21.4148 18.5856C21.0397 18.2106 20.531 17.9999 20.0006 17.9999C19.4701 17.9999 18.9614 18.2106 18.5864 18.5856C18.2113 18.9607 18.0006 19.4694 18.0006 19.9999C18.0006 20.5303 18.2113 21.039 18.5864 21.4141C18.9614 21.7891 19.4701 21.9999 20.0006 21.9999Z" fill="#005E0E"/>
</svg>
