<svg width="18" height="19" viewBox="0 0 18 19" fill="none" xmlns="http://www.w3.org/2000/svg">
<path d="M18 8.99987C18.0028 10.7866 17.4714 12.5334 16.474 14.0159C15.6514 15.2429 14.5391 16.2483 13.2356 16.9432C11.932 17.638 10.4772 18.001 9 17.9999C7.52277 18.001 6.06804 17.638 4.76444 16.9432C3.46085 16.2483 2.34858 15.2429 1.526 14.0159C0.74273 12.8483 0.243902 11.5134 0.069506 10.1183C-0.104891 8.72319 0.0499955 7.30662 0.521748 5.98215C0.9935 4.65768 1.769 3.46216 2.78607 2.49142C3.80314 1.52068 5.0335 0.801734 6.37851 0.392206C7.72352 -0.017323 9.14577 -0.106038 10.5312 0.133172C11.9167 0.372382 13.2269 0.932863 14.3567 1.76969C15.4865 2.60651 16.4046 3.69639 17.0373 4.95197C17.67 6.20755 17.9997 7.59389 18 8.99987Z" stroke="#495057" stroke-width="1.5"/>
<path d="M10.25 6C10.25 6.69 9.69002 7.25 9.00002 7.25V8.75C9.72936 8.75 10.4288 8.46027 10.9446 7.94454C11.4603 7.42882 11.75 6.72935 11.75 6H10.25ZM9.00002 7.25C8.31002 7.25 7.75002 6.69 7.75002 6H6.25002C6.25002 6.72935 6.53975 7.42882 7.05547 7.94454C7.5712 8.46027 8.27067 8.75 9.00002 8.75V7.25ZM7.75002 6C7.75002 5.31 8.31002 4.75 9.00002 4.75V3.25C8.27067 3.25 7.5712 3.53973 7.05547 4.05546C6.53975 4.57118 6.25002 5.27065 6.25002 6H7.75002ZM9.00002 4.75C9.69002 4.75 10.25 5.31 10.25 6H11.75C11.75 5.27065 11.4603 4.57118 10.9446 4.05546C10.4288 3.53973 9.72936 3.25 9.00002 3.25V4.75ZM2.16602 14.856L1.44702 14.642L1.33002 15.034L1.59702 15.344L2.16602 14.856ZM15.834 14.856L16.404 15.345L16.67 15.035L16.553 14.642L15.834 14.856ZM6.00002 12.75H12V11.25H6.00002V12.75ZM6.00002 11.25C4.97704 11.2497 3.9813 11.5797 3.16095 12.1909C2.3406 12.802 1.73948 13.6617 1.44702 14.642L2.88502 15.07C3.08527 14.3995 3.49659 13.8115 4.05783 13.3935C4.61906 12.9755 5.30023 12.7498 6.00002 12.75V11.25ZM9.00002 17.25C7.80943 17.2514 6.63273 16.9944 5.5511 16.4968C4.46947 15.9993 3.50868 15.273 2.73502 14.368L1.59702 15.344C2.51148 16.413 3.64686 17.272 4.92491 17.8598C6.20295 18.4476 7.59327 18.7513 9.00002 18.75V17.25ZM12 12.75C13.47 12.75 14.715 13.728 15.115 15.07L16.553 14.642C16.2606 13.6617 15.6594 12.802 14.8391 12.1909C14.0187 11.5797 13.023 11.2497 12 11.25V12.75ZM15.265 14.368C14.4914 15.273 13.5306 15.9993 12.4489 16.4968C11.3673 16.9944 10.1906 17.2514 9.00002 17.25V18.75C10.4068 18.7513 11.7971 18.4476 13.0751 17.8598C14.3532 17.272 15.4896 16.414 16.404 15.345L15.265 14.368Z" fill="#495057"/>
</svg>
