<svg width="18" height="18" viewBox="0 0 18 18" fill="none" xmlns="http://www.w3.org/2000/svg">
<path d="M18.0002 18.0002L13.6572 13.6572M13.6572 13.6572C14.4001 12.9143 14.9894 12.0324 15.3914 11.0618C15.7935 10.0911 16.0004 9.05081 16.0004 8.00021C16.0004 6.9496 15.7935 5.90929 15.3914 4.93866C14.9894 3.96803 14.4001 3.08609 13.6572 2.34321C12.9143 1.60032 12.0324 1.01103 11.0618 0.608979C10.0911 0.206931 9.05081 -7.82759e-09 8.00021 0C6.9496 7.8276e-09 5.90929 0.206931 4.93866 0.608979C3.96803 1.01103 3.08609 1.60032 2.34321 2.34321C0.842876 3.84354 -1.58085e-08 5.87842 0 8.00021C1.58085e-08 10.122 0.842876 12.1569 2.34321 13.6572C3.84354 15.1575 5.87842 16.0004 8.00021 16.0004C10.122 16.0004 12.1569 15.1575 13.6572 13.6572Z" stroke="#495057" stroke-width="1.5" stroke-linecap="round" stroke-linejoin="round"/>
</svg>
