<svg width="112" height="32" viewBox="0 0 112 32" fill="none" xmlns="http://www.w3.org/2000/svg">
<path fill-rule="evenodd" clip-rule="evenodd" d="M8.99044 7.67567C9.36406 6.77738 10.6366 6.77738 11.0102 7.67567L12.7452 11.8471L17.2486 12.2081C18.2184 12.2859 18.6116 13.4961 17.8727 14.129L14.4416 17.0682L15.4899 21.4627C15.7156 22.4091 14.6861 23.157 13.8559 22.6499L10.0003 20.295L6.14477 22.6499C5.31451 23.157 4.28501 22.4091 4.51075 21.4627L5.55901 17.0682L2.12789 14.129C1.38903 13.4961 1.78225 12.2859 2.75203 12.2081L7.25544 11.8471L8.99044 7.67567Z" fill="#E5DB22" fill-opacity="0.84"/>
<path fill-rule="evenodd" clip-rule="evenodd" d="M32.9904 7.67567C33.3641 6.77738 34.6366 6.77738 35.0102 7.67567L36.7452 11.8471L41.2486 12.2081C42.2184 12.2859 42.6116 13.4961 41.8727 14.129L38.4416 17.0682L39.4899 21.4627C39.7156 22.4091 38.6861 23.157 37.8559 22.6499L34.0003 20.295L30.1448 22.6499C29.3145 23.157 28.285 22.4091 28.5108 21.4627L29.559 17.0682L26.1279 14.129C25.389 13.4961 25.7823 12.2859 26.752 12.2081L31.2554 11.8471L32.9904 7.67567Z" fill="#E5DB22" fill-opacity="0.84"/>
<path fill-rule="evenodd" clip-rule="evenodd" d="M56.9904 7.67567C57.3641 6.77738 58.6366 6.77738 59.0102 7.67567L60.7452 11.8471L65.2486 12.2081C66.2184 12.2859 66.6116 13.4961 65.8727 14.129L62.4416 17.0682L63.4899 21.4627C63.7156 22.4091 62.6861 23.157 61.8559 22.6499L58.0003 20.295L54.1448 22.6499C53.3145 23.157 52.285 22.4091 52.5108 21.4627L53.559 17.0682L50.1279 14.129C49.389 13.4961 49.7823 12.2859 50.752 12.2081L55.2554 11.8471L56.9904 7.67567Z" fill="#E5DB22" fill-opacity="0.84"/>
<path fill-rule="evenodd" clip-rule="evenodd" d="M80.9904 7.67567C81.3641 6.77738 82.6366 6.77738 83.0102 7.67567L84.7452 11.8471L89.2486 12.2081C90.2184 12.2859 90.6116 13.4961 89.8727 14.129L86.4416 17.0682L87.4899 21.4627C87.7156 22.4091 86.6861 23.157 85.8559 22.6499L82.0003 20.295L78.1448 22.6499C77.3145 23.157 76.285 22.4091 76.5108 21.4627L77.559 17.0682L74.1279 14.129C73.389 13.4961 73.7823 12.2859 74.752 12.2081L79.2554 11.8471L80.9904 7.67567Z" fill="#E5DB22" fill-opacity="0.84"/>
<path fill-rule="evenodd" clip-rule="evenodd" d="M104 7.00871C103.568 6.94842 103.109 7.20117 102.912 7.76696L101.257 12.5157L96.9613 12.9267C96.0364 13.0152 95.6613 14.393 96.366 15.1135L99.6386 18.4594L98.6388 23.4621C98.4235 24.5394 99.4054 25.3909 100.197 24.8136L103.875 22.1327L104 22.224V7.00871Z" fill="#E5DB22" fill-opacity="0.84"/>
</svg>
